<?xml version="1.0" encoding="UTF-8" standalone="no"?>
<!-- Created with Inkscape (http://www.inkscape.org/) -->

<svg
   xmlns:dc="http://purl.org/dc/elements/1.1/"
   xmlns:cc="http://creativecommons.org/ns#"
   xmlns:rdf="http://www.w3.org/1999/02/22-rdf-syntax-ns#"
   xmlns:svg="http://www.w3.org/2000/svg"
   xmlns="http://www.w3.org/2000/svg"
   xmlns:xlink="http://www.w3.org/1999/xlink"
   xmlns:sodipodi="http://sodipodi.sourceforge.net/DTD/sodipodi-0.dtd"
   xmlns:inkscape="http://www.inkscape.org/namespaces/inkscape"
   id="svg2"
   version="1.1"
   inkscape:version="0.48.2 r9819"
   width="157"
   height="61"
   sodipodi:docname="cast.svg"
   inkscape:export-filename="/Users/ict4g/Desktop/evm/evmPro/src/evm2003/gui/graphics/castbtm.png"
   inkscape:export-xdpi="89.980003"
   inkscape:export-ydpi="89.980003">
  <metadata
     id="metadata8">
    <rdf:RDF>
      <cc:Work
         rdf:about="">
        <dc:format>image/svg+xml</dc:format>
        <dc:type
           rdf:resource="http://purl.org/dc/dcmitype/StillImage" />
        <dc:title></dc:title>
      </cc:Work>
    </rdf:RDF>
  </metadata>
  <defs
     id="defs6">
    <linearGradient
       inkscape:collect="always"
       id="linearGradient3907">
      <stop
         style="stop-color:#00ce13;stop-opacity:1;"
         offset="0"
         id="stop3909" />
      <stop
         style="stop-color:#00ce13;stop-opacity:0;"
         offset="1"
         id="stop3911" />
    </linearGradient>
    <filter
       id="filter2989"
       inkscape:label="Drop shadow"
       width="1.5"
       height="1.5"
       x="-.25"
       y="-.25">
      <feGaussianBlur
         id="feGaussianBlur2991"
         in="SourceAlpha"
         stdDeviation="2.5"
         result="blur" />
      <feColorMatrix
         id="feColorMatrix2993"
         result="bluralpha"
         type="matrix"
         values="1 0 0 0 0 0 1 0 0 0 0 0 1 0 0 0 0 0 0.506 0 " />
      <feOffset
         id="feOffset2995"
         in="bluralpha"
         dx="5.6"
         dy="5.6"
         result="offsetBlur" />
      <feMerge
         id="feMerge2997">
        <feMergeNode
           id="feMergeNode2999"
           in="offsetBlur" />
        <feMergeNode
           id="feMergeNode3001"
           in="SourceGraphic" />
      </feMerge>
    </filter>
    <linearGradient
       inkscape:collect="always"
       xlink:href="#linearGradient3907"
       id="linearGradient3927"
       gradientUnits="userSpaceOnUse"
       x1="72.055451"
       y1="9.669275"
       x2="345.51472"
       y2="9.669275" />
  </defs>
  <sodipodi:namedview
     pagecolor="#ffffff"
     bordercolor="#666666"
     borderopacity="1"
     objecttolerance="10"
     gridtolerance="10"
     guidetolerance="10"
     inkscape:pageopacity="0"
     inkscape:pageshadow="2"
     inkscape:window-width="1299"
     inkscape:window-height="986"
     id="namedview4"
     showgrid="false"
     inkscape:zoom="1"
     inkscape:cx="78.5"
     inkscape:cy="30.5"
     inkscape:window-x="1288"
     inkscape:window-y="0"
     inkscape:window-maximized="0"
     inkscape:current-layer="svg2" />
  <rect
     style="color:#000000;fill:#0000ff;fill-opacity:1;fill-rule:nonzero;stroke:#ffffff;stroke-width:1;stroke-linecap:butt;stroke-linejoin:miter;stroke-miterlimit:4;stroke-opacity:1;stroke-dasharray:none;stroke-dashoffset:0;marker:none;visibility:visible;display:inline;overflow:visible;filter:url(#filter2989);enable-background:accumulate"
     id="rect2987"
     width="149.32274"
     height="55.276283"
     x="1.1515895"
     y="0.73349708"
     ry="6.9095354" />
  <text
     xml:space="preserve"
     style="font-size:24px;font-style:normal;font-weight:bold;line-height:125%;letter-spacing:0px;word-spacing:0px;fill:#fff9f9;fill-opacity:1;stroke:none;font-family:Sans;-inkscape-font-specification:Sans Bold"
     x="62.399513"
     y="25.874155"
     id="text3771"
     sodipodi:linespacing="125%"><tspan
       sodipodi:role="line"
       id="tspan3773"
       x="62.399513"
       y="25.874155">Back</tspan></text>
  <text
     xml:space="preserve"
     style="font-size:20px;font-style:normal;font-weight:normal;line-height:125%;letter-spacing:-1.57999992px;word-spacing:0px;fill:#fffbfb;fill-opacity:1;stroke:none;font-family:Sans"
     x="99.96032"
     y="45.102177"
     id="text3775"
     sodipodi:linespacing="125%"><tspan
       sodipodi:role="line"
       id="tspan3777"
       x="99.89032"
       y="45.102177"
       style="font-size:18px;font-weight:bold;text-align:center;letter-spacing:-0.13999997px;text-anchor:middle;-inkscape-font-specification:Sans Bold">to edit !</tspan></text>
  <path
     style="fill:#fbfbfb;fill-opacity:1;stroke-width:0.80000000000000004;stroke-miterlimit:4;stroke-dasharray:none;stroke:#fefefd;stroke-opacity:1"
     d="M 29.040654,44.404366 C 28.935239,43.526768 28.847802,42.246191 28.846352,41.55864 l -0.0026,-1.250092 2.002652,-0.160755 c 4.135992,-0.331995 8.304525,-3.26081 10.241739,-7.195855 0.89332,-1.814585 0.976305,-2.230401 0.973437,-4.87743 -0.0026,-2.499388 -0.114366,-3.131992 -0.819357,-4.64213 C 38.18635,16.886484 29.915055,14.050906 23.191147,17.244076 l -2.284758,1.085028 1.462288,1.298326 c 0.804266,0.714081 2.249871,1.913247 3.212463,2.664815 1.61707,1.262569 1.697889,1.38242 1.06273,1.575969 -0.378088,0.115214 -3.901493,0.632129 -7.829793,1.148695 -3.928299,0.516569 -7.518475,1.000688 -7.978168,1.075822 l -0.835809,0.136608 0,-8.23513 0,-8.235129 1.291706,1.04007 c 0.710437,0.572039 2.076821,1.671392 3.03641,2.443004 l 1.74471,1.402933 1.951745,-1.308788 c 1.073459,-0.719834 3.092098,-1.700134 4.485862,-2.178444 2.279764,-0.782371 2.930679,-0.869657 6.485208,-0.869657 3.23838,0 4.334856,0.121594 6.078606,0.674093 3.047042,0.965441 5.761664,2.65212 8.206114,5.098715 3.43236,3.435372 5.004551,7.206204 5.01124,12.019237 0.007,5.032547 -1.48779,8.50192 -5.301098,12.30378 -1.804335,1.798923 -3.043163,2.731871 -4.724994,3.558357 -2.536932,1.246701 -5.50929,2.046323 -7.631901,2.053128 L 29.232308,46 29.040654,44.404366 z"
     id="path4042"
     inkscape:connector-curvature="0" />
</svg>
